<svg width="30" height="30" fill="none" xmlns="http://www.w3.org/2000/svg"><path d="M22 0H8a8 8 0 0 0-8 8v14a8 8 0 0 0 8 8h14a8 8 0 0 0 8-8V8a8 8 0 0 0-8-8z" fill="#fff"></path><path d="M8 .5h14A7.5 7.5 0 0 1 29.5 8v14a7.5 7.5 0 0 1-7.5 7.5H8A7.5 7.5 0 0 1 .5 22V8A7.5 7.5 0 0 1 8 .5z" stroke="#000" stroke-opacity=".1"></path><path d="M8 20c3.616 0 5.192-2.589 7-5H3v5h5z" fill="url(#paint0_linear)"></path><path d="M22 10c-3.616 0-5.192 2.589-7 5h12v-5h-5z" fill="url(#paint1_linear)"></path><defs><linearGradient id="paint0_linear" x1="5.427" y1="17.456" x2="14.206" y2="14.195" gradientUnits="userSpaceOnUse"><stop stop-color="#005AB9"></stop><stop offset="1" stop-color="#1E3764"></stop></linearGradient><linearGradient id="paint1_linear" x1="15.726" y1="15.24" x2="25.047" y2="12.06" gradientUnits="userSpaceOnUse"><stop stop-color="#FBA900"></stop><stop offset="1" stop-color="#FFD800"></stop></linearGradient></defs></svg>
